<?xml version="1.0" encoding="UTF-8"?>
<svg width="1200pt" height="1200pt" version="1.1" viewBox="0 0 1200 1200" xmlns="http://www.w3.org/2000/svg">
 <path d="m402.12 934.36c1.0234-0.38672 1.8594-0.9375 1.8594-1.2539s-4.0312-1.832-8.957-3.375c-19.047-5.9531-24.035-9.7383-41.402-31.406-10.328-12.887-21.98-25.031-23.52-24.516-1.0039 0.33984-0.8125 2.125 1.2188 11.34 2.332 10.582 5.8477 22.641 10.145 34.785 5.4336 15.367 5.4922 13.859-0.53125 13.859-4.8984 0-5.0898 0-5.8008-1.8594-1.2422-3.1406-5.1836-17.156-10.602-37.688-12.754-48.34-21.855-70.172-38.289-91.848-2.5391-3.3477-4.6133-6.4258-4.6133-6.8438 0-1.5469-2.793-23.297-4.125-32.113-0.75781-5.0195-3.2578-18.25-5.5547-29.406l-4.1758-20.277-0.35938-195.11 2.0352-2.0352c2.9766-2.9766 4.6367-2.4492 6.9336 2.2031 3.375 6.8281 4.1875 14.781 4.1328 40.473-0.035156 18.961-0.39844 27.098-2.1992 50.023-2.4141 30.711-3.332 50.699-2.332 50.699 0.97656 0 4.6719-4.1016 5.9062-6.5586 1.3828-2.7461 1.3984-10.07 0.070313-30.961-2.3672-37.207-1.3594-44.066 10.324-70.301 6.9766-15.668 9.1953-22.57 8.6406-26.867-0.48047-3.6992-2.707-9.2969-3.7031-9.2969-0.39844 0-0.75781 2.9688-0.87109 7.1953-0.1875 6.9961-0.24609 7.2344-2.082 8.6055-1.75 1.3047-2.0234 1.332-3.7188 0.375-1.8125-1.0273-1.8281-1.1016-1.7656-8.0977 0.082032-9.3438 1.3008-14.582 8.1641-35.074 6.7617-20.188 8.7227-28.305 9.7344-40.266 1.1758-13.895 1.5898-14.633 4.1055-7.2656 1.2656 3.7031 1.5586 5.9961 1.5586 12.168 0 4.1836 0.21094 7.6055 0.47266 7.6055 0.57813 0 20.047-20.543 32.086-33.855 18.367-20.309 38.227-43.754 63.48-74.945 23.766-29.352 37.027-41.363 55.293-50.09 8.0898-3.8633 14.418-5.4688 29.195-7.3906 14.656-1.9102 19.535-3.3477 31.957-9.4258 5.8477-2.8594 12.301-5.8555 14.348-6.6562 7.4102-2.9023 23.234-6.1875 46.305-9.6133 16.75-2.4844 30.777-4.957 38.82-6.8398 11.984-2.8047 16.391-3.2812 30.508-3.293 13.762-0.007813 13.949 0.007812 19.441 2.0117 3.0508 1.1133 9.418 2.9688 14.156 4.125 9.6914 2.3633 13.527 3.8438 21.793 8.3984 24.293 13.395 44.945 32.781 77.742 72.988 5.7617 7.0625 15.906 18.469 22.547 25.348 24.133 25.008 26.668 29.785 33.223 62.551 3.3555 16.785 6.0938 25.398 11.812 37.164 5.0781 10.441 8.7773 16.539 25.023 41.234 25.852 39.293 31.285 52.277 34.777 83.145 1.9336 17.09 2.5273 36.562 2.2305 73.008l-0.29297 35.828-2.125 13.859c-3.2344 21.082-2.8125 35.289 1.2852 43.359 1.8945 3.7305 3.168 5.3789 7.9375 10.281l3.8516 3.957v36.703l-1.8203 2.7031c-1 1.4883-3.7891 8.4922-6.1992 15.566-4.832 14.191-10.258 27.039-20.695 48.988-9.3633 19.688-14.387 31.598-18.254 43.266l-3.25 9.8008-5.9336 0.19531c-3.2617 0.11328-6.3203 0-6.793-0.13672-0.63672-0.25-0.070312-2.5742 2.1602-8.8945 1.6602-4.7109 4.6992-14.84 6.75-22.512 8.7969-32.906 12-41.09 23.754-60.617 8.0391-13.359 10.164-17.668 11.738-23.816 1.7422-6.8086 1.6523-13.121-0.39453-28.219-2.8203-20.812-3.2148-30.367-2.3047-56.188 1.1172-31.754 0.60938-51.684-1.6484-64.625-4.043-23.188-8.4102-38.762-22.613-80.625-10.484-30.906-12.414-37.16-20.352-65.965-6.418-23.301-10.02-33.656-15.602-44.898-5.0352-10.141-9.707-16.887-20.609-29.742-9.7734-11.527-14.906-18.676-18.379-25.586-2.9141-5.8008-5.625-14.418-5.625-17.867 0-1.4961 0.21094-1.625 2.0586-1.2539 2.707 0.54297 7.4492 3.8477 10.074 7.0195 1.1523 1.3945 3.6602 5.582 5.5664 9.2969 4.7344 9.2266 8.2891 14.742 11.09 17.199 4.5508 3.9961 4.5859 2.3359 0.19531-9.4141-3.5586-9.5234-7.4375-16.121-12.973-22.059-5.1875-5.5664-11.742-9.3789-17.41-10.133-1.8203-0.24219-3.5586-0.78125-3.8672-1.1992-0.30859-0.41797-0.94141-2.7383-1.4023-5.1523-1.5234-7.9414-4.6914-13.633-14.758-26.52-3.1172-3.9922-6.1133-8.3242-6.6602-9.6289-0.54297-1.3047-1.3086-5.4922-1.6953-9.3047s-1.0508-8.1055-1.4727-9.5391c-2.3633-7.9883-30.129-30.117-62.23-49.602-21.855-13.262-32.805-16.367-54.809-15.531-13.121 0.49609-22.617 2.1172-46.391 7.918-22.293 5.4375-26.711 6.1914-47.32 8.082-25.488 2.3359-28.527 3.332-44.277 14.543-14.613 10.398-19.301 12.273-35.488 14.188-11.051 1.3086-15.996 2.4961-20.535 4.9336-5.1992 2.793-14.129 12.125-22.938 23.965-4.3477 5.8438-11.477 14.664-15.848 19.605-4.3672 4.9375-19.031 21.906-32.582 37.707-35.918 41.887-50.586 58.395-66.18 74.484l-7 7.2266 0.46484 10.688c0.76172 17.578-1.3125 27.375-11.367 53.676-11.082 28.977-11.68 31.73-14.957 68.551-1.8359 20.637-2.5312 45.887-1.7539 63.574 0.875 19.844 0.89844 19.953 7.5312 34.105 2.1758 4.6484 4.4297 10.277 5.0039 12.504 0.58203 2.2578 1.332 9.7461 1.6953 16.898 0.86719 17.129 2.6641 24.043 13.008 50.023 10.703 26.883 14.18 38.242 16.402 53.621 0.60938 4.2109 1.5469 8.9102 2.0898 10.441 1.793 5.082 16.574 23.473 28.48 35.438 16.117 16.195 27.539 24.613 51.223 37.758 5.2031 2.8906 10.062 5.6602 10.797 6.1602 1.1367 0.76563-0.50781 0.89844-11.152 0.85156-9.1953 0-11.996-0.24219-10.629-0.73438zm-90.449-117c-2.3633-7.1562-7.4922-25.504-11.398-40.777-9.7266-38.035-17.477-62.898-19.844-63.672-0.99219-0.31641-0.80469 2.1211 1.293 17.059 4.3594 31 12.055 63.23 18.82 78.836 3.7812 8.7227 12.488 21.562 14.617 21.562 0.5 0-0.81641-4.9102-3.4922-13.012zm591.87-220.16c0-9.8281-2.8594-22.48-8.0469-35.629-3.4766-8.8086-15.91-34.605-17.879-37.09-1.0352-1.3086-1.0703-1.2852-1.0938 0.77734-0.023437 2.8984 4.2695 19.789 7.1758 28.195 4.0195 11.629 18.559 47.754 19.219 47.754 0.34375 0 0.625-1.8047 0.625-4.0078zm-260.59 234.03c-21.012-0.64844-38.422-5.3945-51.039-13.914-21.336-14.406-33.332-35.941-30.484-54.715 1.0977-7.2539 2.8516-11.324 4.8672-11.324 2.2891 0 7.5586 3.7031 9.8555 6.9258 2.9766 4.1719 3.7695 5.9219 7.293 16.059 3.3711 9.707 5.2461 13.469 8.6289 17.32 4.3867 4.9961 16.074 11.488 25.863 14.363 19.27 5.6562 49.258 5.1562 67.262-1.125 10.418-3.6367 20.031-10.602 22.945-16.617 2.1484-4.4375 2.5195-17.758 1.0742-38.609-0.67969-9.8086-1.0703-21.816-0.93359-28.617l0.23438-11.719 2.168-1.9336c2.9844-2.6641 6.0742-3.1367 9.7812-1.4961 2.4336 1.0781 3.3516 2.043 5.1562 5.4258 5.2227 9.793 6.0703 19.434 5.0586 57.402l-0.58203 21.766-3.2617 4.7695c-10.832 15.852-26.098 28.219-40.527 32.832-7.6953 2.4609-25.352 3.7695-43.367 3.2148zm-216.46-175.98c-14.141-1.7539-28.184-7.5625-40.527-16.766-5.4492-4.0625-16.379-14.953-16.539-16.484-0.046874-0.47656-0.035156-5.1211 0.035157-10.324 0.16797-11.895-0.94141-16.43-7.3672-30.082-6.8008-14.453-7.5742-17.086-7.9531-27.039-0.85156-22.5 8.0391-43.684 25.238-60.125 35.473-33.91 95.555-38.617 136.03-10.656 2.8047 1.9375 7.3555 5.6523 10.113 8.2539 4.4961 4.2422 5.1719 5.2188 6.5352 9.4648 1.4922 4.6367 1.5977 4.7695 5.3203 6.5703 6.6641 3.2266 9.918 9.6367 9.918 19.531 0 25.148-12.812 49.02-47.551 88.586-15.578 17.742-28.281 28.984-38.148 33.758-9.1094 4.4062-24.125 6.6758-35.109 5.3164zm19.75-12.129c5.7891-1.8555 11.941-4.8945 15.547-7.6797 11.324-8.7461 28.91-26.09 40.504-39.953 18.668-22.312 28.82-38.48 31.223-49.734 2.1523-10.07-0.48047-33.117-4.1445-36.316-2.8164-2.457-4.5781-2.543-8.4727-0.42578-1.9219 1.0469-3.6484 2.293-3.832 2.7734-0.41797 1.0898 0.83203 3.0078 5.25 8.0391 3.793 4.3203 6.0586 8.1992 6.0586 10.367 0 1.8633-0.80859 1.7461-5.5586-0.78125-5.7148-3.0469-12.895-10.02-22.348-21.703-10.715-13.246-14.031-16.82-20.016-21.586-10.496-8.3555-20.652-12.008-33.383-12.008-12.668 0-22.938 2.8125-33.996 9.3047-9.4961 5.5781-20.672 14.918-28.762 24.039-5.5938 6.3047-5.8828 5.8125 4.3633 7.4062 14.801 2.3047 24.082 10.676 26.32 23.746 1.457 8.4961-0.95703 16.359-7.0742 23.051-5.6719 6.2031-13.75 9.1641-27.848 10.207l-5.3281 0.39062 0.38281 11.934c0.42187 13.168 1.6562 20.086 5.1289 28.754 6.4414 16.082 18.516 26.305 36.445 30.852 7.3828 1.875 22.664 1.5195 29.539-0.6875zm301.83-61.301c-23.512-1.4961-49.18-7.2773-65.223-14.691-18.055-8.3438-32.445-23.961-51.191-55.555-9.1602-15.445-11.035-26.449-7.2695-42.672 3.1133-13.398 8.7969-21.703 29.145-42.566 21.309-21.852 26.516-29.18 32.711-46.016 2.4492-6.6602 2.6445-6.957 4.9805-7.5781 9.7344-2.5938 27.863-2.6367 37.582-0.082031 7.5898 1.9922 16.637 6.543 22.984 11.559 19.207 15.184 52.449 54.848 67.496 80.539 6.9141 11.805 11.777 23.652 15.086 36.738 2.5391 10.051 3.0039 26.16 0.98438 34.145-4.5 17.801-17.664 33.379-35.855 42.43l-7.7734 3.8672-19.969 0.082032c-10.98 0-21.641-0.082032-23.684-0.17578zm36.164-9.5742c17.965-3.8477 29.578-11.887 35.809-24.785 3.7695-7.8086 4.6875-12.297 4.6992-22.984 0.023437-20.445-7.2695-42.375-20.891-62.867-4.9922-7.5078-13.414-17.914-14.5-17.914-0.32422 0-0.70312 3.8789-0.84375 8.6172-0.41016 13.785-1.6562 15.043-14.887 15.039-22.582 0-34.141-2.8555-42.297-10.449l-3.8164-3.5508-0.25781-8.7148c-0.30859-10.523 0.79688-16.676 4.2773-23.746 3.6133-7.3438 8.75-10.281 19.898-11.379 5.6523-0.55859 5.7383-0.79688 2.6055-7.1133-3.207-6.4609-9.8086-12.777-16.871-16.141-5.8281-2.7734-12.309-4.7539-15.57-4.7539-1.3047 0-3.1328 1.1367-6.1094 3.7969-4.4258 3.9492-12.723 10.676-29.938 24.262-30.082 23.738-43.691 39.852-49.668 58.809-1.8984 6.0156-2.5898 17.531-1.3672 22.715 2.9531 12.531 18.445 37.977 30.418 49.957 9.0898 9.0977 19.738 15.676 34.477 21.293 12.605 4.8047 30.949 9.0625 44.953 10.43 4.0898 0.39844 8.3477 0.85156 9.4648 1.0078 5.1016 0.70703 24.566-0.27344 30.418-1.5273z" stroke-width="22" stroke="#fff" fill="#fff"/>
</svg>
